<svg id="Layer_1" xmlns="http://www.w3.org/2000/svg" xmlns:xlink="http://www.w3.org/1999/xlink" viewBox="0 0 500 500" data-imageid="shopping-5" imageName="Shopping" class="illustrations_image" style="width: 185px;"><defs><style>.cls-1_shopping-5{fill:url(#linear-gradient);}.cls-1_shopping-5,.cls-2_shopping-5,.cls-3_shopping-5,.cls-4_shopping-5,.cls-5_shopping-5,.cls-6_shopping-5,.cls-7_shopping-5,.cls-8_shopping-5,.cls-9_shopping-5,.cls-10_shopping-5,.cls-11_shopping-5,.cls-12_shopping-5,.cls-13_shopping-5,.cls-14_shopping-5,.cls-15_shopping-5,.cls-16_shopping-5,.cls-17_shopping-5,.cls-18_shopping-5{stroke-width:0px;}.cls-2_shopping-5{fill:url(#linear-gradient-11-shopping-5);}.cls-3_shopping-5{fill:url(#linear-gradient-12-shopping-5);}.cls-4_shopping-5{fill:url(#linear-gradient-13-shopping-5);}.cls-5_shopping-5{fill:url(#linear-gradient-10-shopping-5);}.cls-6_shopping-5{fill:url(#linear-gradient-14-shopping-5);}.cls-7_shopping-5{fill:url(#linear-gradient-4-shopping-5);}.cls-8_shopping-5{fill:url(#linear-gradient-2-shopping-5);}.cls-9_shopping-5{fill:url(#linear-gradient-3-shopping-5);}.cls-10_shopping-5{fill:url(#linear-gradient-8-shopping-5);}.cls-11_shopping-5{fill:url(#linear-gradient-9-shopping-5);}.cls-12_shopping-5{fill:url(#linear-gradient-7-shopping-5);}.cls-13_shopping-5{fill:url(#linear-gradient-5-shopping-5);}.cls-14_shopping-5{fill:url(#linear-gradient-6-shopping-5);}.cls-15_shopping-5{fill:#231f20;}.cls-16_shopping-5{fill:#ffb4a3;}.cls-17_shopping-5,.cls-18_shopping-5{fill:#68e1fd;}.cls-18_shopping-5{isolation:isolate;opacity:.19;}</style><linearGradient id="linear-gradient-shopping-5" x1="-2901.22" y1="-6088.47" x2="-2843.68" y2="-6103.05" gradientTransform="translate(2940.9 6304.2)" gradientUnits="userSpaceOnUse"><stop offset="0" stop-color="#231f20" stop-opacity="0"/><stop offset="1" stop-color="#231f20"/></linearGradient><linearGradient id="linear-gradient-2-shopping-5" x1="-2876.45" y1="-6126.9" x2="-2827.35" y2="-6102.35" xlink:href="#linear-gradient-shopping-5"/><linearGradient id="linear-gradient-3-shopping-5" x1="-2876.21" y1="-6178.13" x2="-2801.41" y2="-6140.16" gradientTransform="translate(2943.04 6366.07)" xlink:href="#linear-gradient-shopping-5"/><linearGradient id="linear-gradient-4-shopping-5" x1="-2549.8" y1="-6191.15" x2="-2576.26" y2="-6138.22" gradientTransform="translate(2943.04 6366.07)" xlink:href="#linear-gradient-shopping-5"/><linearGradient id="linear-gradient-5-shopping-5" x1="-2606.28" y1="-6136.6" x2="-2571.76" y2="-6098.34" xlink:href="#linear-gradient-shopping-5"/><linearGradient id="linear-gradient-6-shopping-5" x1="-2583.04" y1="-6213.33" x2="-2583.04" y2="-6168.44" gradientTransform="translate(2943.04 6366.07)" xlink:href="#linear-gradient-shopping-5"/><linearGradient id="linear-gradient-7-shopping-5" x1="-2572.23" y1="-6163.68" x2="-2613.08" y2="-6146.99" gradientTransform="translate(2943.04 6366.07)" xlink:href="#linear-gradient-shopping-5"/><linearGradient id="linear-gradient-8-shopping-5" x1="-2586.89" y1="-6169.11" x2="-2615.95" y2="-6148.39" gradientTransform="translate(2943.04 6366.07)" xlink:href="#linear-gradient-shopping-5"/><linearGradient id="linear-gradient-9-shopping-5" x1="-2600.78" y1="-6188.06" x2="-2511.61" y2="-6094.85" gradientTransform="translate(2943.04 6366.07)" gradientUnits="userSpaceOnUse"><stop offset="0" stop-color="#fff" stop-opacity="0"/><stop offset=".84" stop-color="#fff" stop-opacity=".84"/><stop offset=".97" stop-color="#fff"/></linearGradient><linearGradient id="linear-gradient-10-shopping-5" x1="-2740.04" y1="-6109.88" x2="-2626.12" y2="-6053.88" xlink:href="#linear-gradient-shopping-5"/><linearGradient id="linear-gradient-11-shopping-5" x1="-2303.74" y1="3944.3" x2="-2299.83" y2="3986.43" gradientTransform="translate(2534.04 4118.43) scale(1 -1)" xlink:href="#linear-gradient-shopping-5"/><linearGradient id="linear-gradient-12-shopping-5" x1="-2844.22" y1="-6000.38" x2="-2658.97" y2="-6011.88" xlink:href="#linear-gradient-shopping-5"/><linearGradient id="linear-gradient-13-shopping-5" x1="-2730.11" y1="-6130.8" x2="-2770.19" y2="-6107.41" xlink:href="#linear-gradient-shopping-5"/><linearGradient id="linear-gradient-14-shopping-5" x1="-2727.33" y1="-6006.68" x2="-2664.34" y2="-6010.59" xlink:href="#linear-gradient-shopping-5"/></defs><g id="background_shopping-5"><path class="cls-18_shopping-5 targetColor" d="M477.87,271.1c-14.62,27.08-43.65,46.94-74.42,46.75-11.06-.08-22.18-2.58-33.1-.73-7.57,1.3-14.68,4.65-21.75,7.8-36.14,16.16-79.77,27.28-113.99,7.37-20.07-11.68-35.61-33.37-58.64-35.84-14.31-1.53-28.09,4.92-41.44,10.29-19.22,7.73-40.47,13.55-60.47,8.18-21.04-5.67-36.67-22.63-47.09-42.21-2.61-4.9-4.92-9.95-6.9-15.13-16.14-41.98-15.02-92.62,11.69-128.82,20.16-27.39,52.13-43.54,84.29-54.52,73.82-25.18,145.86-.61,221.85-4.91,20.59-1.16,41.96-3.06,61.2,4.35,15.31,5.89,27.89,17.21,39.06,29.22,20.96,22.54,38.55,48.88,47.06,78.45,3.08,10.68,4.84,21.71,5.23,32.82.66,19.77-3.21,39.56-12.57,56.91v.02Z" style="fill: rgb(40, 75, 99);"/><path class="cls-18_shopping-5 targetColor" d="M477.87,271.1c-14.62,27.08-43.65,46.94-74.42,46.75-11.06-.08-22.18-2.58-33.1-.73-7.57,1.3-14.68,4.65-21.75,7.8-36.14,16.16-79.77,27.28-113.99,7.37-20.07-11.68-35.61-33.37-58.64-35.84-14.31-1.53-28.09,4.92-41.44,10.29-19.22,7.73-40.47,13.55-60.47,8.18-21.04-5.67-36.67-22.63-47.09-42.21,7.97-3.65,17.51-1.72,26.33-.47,26.73,3.76,53.97.16,78.81-10.4,26.38-11.29,53.91-30.03,83.95-23.2,29.32,6.62,57.14,29.22,88.51,24.59,11.68-1.72,22.26-7.83,31.67-14.94,21.06-15.93,37.69-37.27,59.43-52.25s52.2-22.46,74.11-7.73c9.33,6.27,15.79,15.65,20.66,25.92.67,19.73-3.2,39.52-12.56,56.87h-.01Z" style="fill: rgb(40, 75, 99);"/></g><g id="bag_1_shopping-5"><path class="cls-17_shopping-5 targetColor" d="M65.97,173.57l-26.76,32.32,39.79,35.36,11.31-10.22,3.79-54.28c.14-1.51-28.14-3.18-28.14-3.18h.01Z" style="fill: rgb(40, 75, 99);"/><path class="cls-1_shopping-5" d="M65.97,173.57l-26.76,32.32,39.79,35.36,11.31-10.22,3.79-54.28c.14-1.51-28.14-3.18-28.14-3.18h.01Z"/><path class="cls-17_shopping-5 targetColor" d="M109.03,116.56l-21.52,44.5h1.95l20.23-43.34s.39-1.16-.66-1.16Z" style="fill: rgb(40, 75, 99);"/><path class="cls-17_shopping-5 targetColor" d="M109.7,162.98l6.75-37.61,1.56.26-6.64,38.9s-1.56,1.35-1.68-1.54h.01Z" style="fill: rgb(40, 75, 99);"/><path class="cls-17_shopping-5 targetColor" d="M66.43,158.89s37.8-5.35,56.7,12.54l4.83,5.23-16.01,41.89s-8.85,6.23-17.37,4.47-24.4-5.9-24.4-5.9c0,0-5.11-1.63-5.11-9.43s1.35-48.81,1.35-48.81h.01Z" style="fill: rgb(40, 75, 99);"/><path class="cls-8_shopping-5" d="M66.43,158.89s37.8-5.35,56.7,12.54l4.83,5.23-16.01,41.89s-8.85,6.23-17.37,4.47-24.4-5.9-24.4-5.9c0,0-5.11-1.63-5.11-9.43s1.35-48.81,1.35-48.81h.01Z"/><path class="cls-17_shopping-5 targetColor" d="M109.7,117.73l-3.8,53.13h1.9l3.07-53.13s-.82-1.4-1.16,0h0Z" style="fill: rgb(40, 75, 99);"/><polygon class="cls-17_shopping-5 targetColor" points="112.63 122.13 123.79 169.85 126.19 169.18 114.04 123.48 112.63 122.13" style="fill: rgb(40, 75, 99);"/><polygon class="cls-17_shopping-5 targetColor" points="94.55 170.52 107.81 170.81 135.06 167.7 149.05 221.49 110.9 241.22 89.87 237.56 94.55 170.52" style="fill: rgb(40, 75, 99);"/><polygon class="cls-9_shopping-5" points="110.9 241.22 107.81 170.81 94.55 170.52 89.87 237.56 110.9 241.22"/></g><g id="bag_2_shopping-5"><polygon class="cls-17_shopping-5 targetColor" points="375.49 165.25 400.74 205.09 381.59 216.81 356.49 222.28 375.49 165.25" style="fill: rgb(40, 75, 99);"/><polygon class="cls-7_shopping-5" points="375.49 165.25 400.74 205.09 381.59 216.81 356.49 222.28 375.49 165.25"/><polygon class="cls-17_shopping-5 targetColor" points="342.76 114.94 334.51 170.81 335.71 170.81 344 114.94 342.76 114.94" style="fill: rgb(40, 75, 99);"/><polygon class="cls-17_shopping-5 targetColor" points="349.36 113.86 358.94 160.05 360.72 159.73 350.3 112.72 349.36 113.86" style="fill: rgb(40, 75, 99);"/><path class="cls-17_shopping-5 targetColor" d="M327.11,175.1s23.5-19.99,43.32-15.05h6.42s-3.89,37.91-2.6,47.33-28.06,19.3-30.26,18.78-10.51.52-11.56-11.69c-1.04-12.21-5.32-39.38-5.32-39.38h0Z" style="fill: rgb(40, 75, 99);"/><path class="cls-13_shopping-5" d="M327.11,175.1s23.5-19.99,43.32-15.05h6.42s-3.89,37.91-2.6,47.33-28.06,19.3-30.26,18.78-10.51.52-11.56-11.69c-1.04-12.21-5.32-39.38-5.32-39.38h0Z"/><polygon class="cls-17_shopping-5 targetColor" points="339.25 181.78 345.82 182.95 357.27 185.55 380.75 174.37 360.72 171.7 339.25 181.78" style="fill: rgb(40, 75, 99);"/><polygon class="cls-14_shopping-5" points="339.25 181.78 345.82 182.95 357.27 185.55 380.75 174.37 360.72 171.7 339.25 181.78"/><polygon class="cls-17_shopping-5 targetColor" points="380.75 174.37 357.27 185.55 339.25 181.78 341.53 232.14 357.27 237.56 381.73 224.34 380.75 174.37" style="fill: rgb(40, 75, 99);"/><polygon class="cls-17_shopping-5 targetColor" points="344 114.94 344 182.95 345.82 182.95 344.91 114.72 344 114.94" style="fill: rgb(40, 75, 99);"/><polygon class="cls-17_shopping-5 targetColor" points="347.15 114.52 365.68 175.1 367.4 175.1 348.44 114.3 347.15 114.52" style="fill: rgb(40, 75, 99);"/><polygon class="cls-12_shopping-5" points="357.27 185.55 357.27 237.56 347.15 230.6 345.82 182.95 357.27 185.55"/><polygon class="cls-10_shopping-5" points="341.53 232.14 347.15 230.6 345.82 182.95 339.25 181.78 341.53 232.14"/><polygon class="cls-11_shopping-5" points="380.75 174.37 357.27 185.55 357.27 237.56 367.4 232.1 380.75 174.37"/></g><g id="character_shopping-5"><path class="cls-16_shopping-5" d="M200.87,333.41c.28.05,11.39,74.42,11.39,74.42,0,0,8.08,1.94,7.8,0s1.11-25.73,2.77-30.43c1.66-4.7-3.07-43.99-3.07-43.99h-18.89Z"/><path class="cls-16_shopping-5" d="M236.94,332.9s1.67,37.58,4.98,47c3.31,9.42,7.47,28.8,7.47,28.8h10.22l-1.88-76.59s-11.65-7.71-20.78.79h0Z"/><path class="cls-17_shopping-5 targetColor" d="M210.15,402.82c2.53-.33,5.11.76,7.63.48,1.05-.25,2.14-.35,3.22-.32.17.01.33.08.45.2.09.15.13.32.11.49v3.37c0,1.62,0,3.4-1.02,4.68s-2.92,1.74-4.63,1.88c-.55.08-1.11.04-1.64-.13-.52-.25-.97-.62-1.33-1.07-1.13-1.24-1.99-1.95-2.15-3.62-.02-.53-.56-5.97-.64-5.97h0Z" style="fill: rgb(40, 75, 99);"/><path class="cls-17_shopping-5 targetColor" d="M258.79,404.3c.58-.13,1.15.22,1.29.8.03.15.04.3,0,.45.12,2.42-.03,4.84-.47,7.22-.05.64-.23,1.26-.51,1.84-.74,1.29-2.38,1.68-3.85,1.76-2.24.14-4.77-.28-6.13-2.04-.67-1.1-1.07-2.33-1.2-3.61-.23-1.33-.7-2.61-.92-3.92-.19-1.13.1-1.69,1.26-1.85,1.62-.25,3.32-.28,4.97-.38,1.87-.14,3.72-.22,5.56-.27Z" style="fill: rgb(40, 75, 99);"/><path class="cls-15_shopping-5" d="M192.08,431.42c-.11.63-.04,1.28.18,1.88.55,1.05,1.51,1.82,2.66,2.13,3.72,1.28,15.1-6.48,18.7-8.06,3.16-1.33,6.19-2.96,9.04-4.87.29-.2-.46-10.22-.66-11.74,0-.23-.08-.46-.25-.62-.15-.09-.32-.14-.49-.14-1.72-.14-3.44,0-5.17,0-.88.01-1.77-.02-2.65-.11-.79-.22-1.6-.37-2.41-.44-1.31.14-3.82,4.25-4.96,4.88-12.97,7.26-13.65,14.67-14,17.1h.01Z"/><path class="cls-15_shopping-5" d="M246.9,419.7c-.25.97-.33,1.98-.25,2.97.3,1.54,1.63,2.65,2.89,3.6,2.3,1.73,14.82,14.24,22.11,10.22.46-.31.81-.75,1.02-1.27.27-.59.42-1.22.46-1.86.26-2.8-.35-5.61-1.75-8.05-1.25-2.15-8.73-8.69-9.48-11.05-.46-1.43-.6-3.18-1.88-3.98-.17-.12-.38-.19-.59-.19-.32.04-.63.18-.87.4-2.23,1.49-5.11,1.1-7.66.74-.75-.11-2.33-1.02-2.94-.61-.91.63-.8,3.17-.84,4.09.02,1.68-.05,3.35-.22,5.02v-.03Z"/><path class="cls-16_shopping-5" d="M263.33,158.6s34.68-21.6,35.23-22.07,35.6-28.95,39.59-32.95c3.99-3.99,7.04-10.79,12.63-8.58s5.71,10.92-1.41,18.86c-.85.95-6.4.83-6.6,1.08-.48.57-1.51,1.69-4.61,5.11-3.1,3.42-22.05,23.98-33.06,29.25s-32.35,27.98-32.35,27.98l-9.42-18.69h0Z"/><path class="cls-16_shopping-5" d="M189.44,161.42c-1.4,1.63-32.4-15.82-32.4-15.82l-36.59-37.2s-6.29-5.49-10.76,2.04,6.75,14.88,6.75,14.88l7.33,1.19s17.76,29.53,22.14,31.01,36.53,27.59,36.83,24.17,6.69-20.27,6.69-20.27h.01Z"/><path class="cls-15_shopping-5" d="M204.66,127.94c-.96,9.73.78,20.2,7.15,27.59,1.5,1.76,3.33,3.49,3.6,5.79.04,1.13-.04,2.27-.21,3.39-.17,1.14.15,2.29.88,3.18.72.75,1.92.78,2.67.05.09-.09.17-.18.24-.28l2.6,5.49c.18.53.54.98,1.02,1.28.45.14.93.14,1.38,0,2.9-.53,5.65-1.68,8.07-3.37.3-.25.65-.43,1.02-.53,1.69-.27,2.04,2.61,3.67,3.23,1.23.48,2.47-.58,3.36-1.55l3.54-3.83c.6,1.28,1.65,2.3,2.94,2.87.39-1.09.92-2.12,1.58-3.07-.14,1.9.06,3.8.59,5.63l1.79-2.22c.16-.21.38-.45.65-.43.18.03.35.13.48.27l2.92,2.58c-1.51-4.46-.84-9.35.22-13.93s2.5-9.2,2.49-13.85c0-6.04-2.41-11.78-4.76-17.37-.96-2.59-2.26-5.04-3.88-7.27-2.39-3.07-5.8-5.01-9.2-6.79-2.9-1.7-6.07-2.87-9.37-3.47-2.59-.25-5.19-.16-7.75.26-2.72.33-5.47.67-8.22,1.02-2.37.34-3.43.47-4.94,2.33-2.97,3.74-4.08,8.46-4.53,13.02v-.02Z"/><path class="cls-16_shopping-5" d="M248.52,141.31c.16.84.02,1.71-.38,2.47-.4.75-.86,1.47-1.37,2.16-.4.65-.85,1.27-1.36,1.84-.51.58-1.22.94-1.99,1.02-2.88.09-1.76-4.73-.8-6.24,1.05-1.77,5.03-4.79,5.9-1.25h0Z"/><path class="cls-16_shopping-5" d="M244.54,143.31c.23-.34.42-.7.58-1.07.16-.38.44-.7.79-.92.36-.21.82-.16,1.11.14.33.41.11,1.02-.14,1.45-.59,1.02-.57,2.68-1.5,3.43-.47.32-.98.58-1.51.78-.67.17-1.37.17-2.04,0-.28-.2.35-1.58.32-1.93s0-.86.11-1.02.6,0,.81,0c.59-.07,1.13-.38,1.48-.86h-.01Z"/><path class="cls-17_shopping-5 targetColor" d="M273.61,175.57c-.11.65-.41,1.25-.86,1.73-1.66,2.29-3.48,4.45-5.46,6.47-3.07,2.97-6.84,5.36-8.87,9.11-2.9,5.36-.66,54.84-.45,63.66.06,2.52-39.1,4.09-56.26,2.22.22-9.06,5.4-24.84,3.55-33.72-1.5-7.15-2.64-3.13-6.52-14.78-1.59-4.76-.41-10.5.44-15.46.56-3.34-14.47-9.38-16.43-13.08.12-2.41.44-4.8.96-7.15h0c.89-4.03,2.34-7.91,4.32-11.53.29-.67.78-1.25,1.4-1.63.75-.28,1.57-.31,2.34-.08,5.91,1.07,11.69,2.78,17.24,5.11,5.19,2.17,10.58,1.24,16.05.5,13.58-1.83,26.79-5.77,39.16-11.67,2.97,6.2,5.94,12.39,8.91,18.58.31.52.48,1.12.48,1.73h0Z" style="fill: rgb(40, 75, 99);"/><path class="cls-5_shopping-5" d="M273.61,175.57c-.11.65-.41,1.25-.86,1.73-1.66,2.29-3.48,4.45-5.46,6.47-3.07,2.97-6.84,5.36-8.87,9.11-2.9,5.36-.66,54.84-.45,63.66.05,2.19-29.31,3.65-48.34,2.79l31.9-2.44s13.53-47.47,10.14-60.12c-3.07-11.43,10.22-24.71,18.47-29.11l2.99,6.24c.3.51.46,1.08.47,1.67h.01Z"/><path class="cls-16_shopping-5" d="M224.94,159.7c-.11-1.47-.33-3.07.41-4.33.83-1.1,1.98-1.91,3.3-2.31,2.43-1.02,5.43-1.99,7.53-.41,1.14,1.02,1.88,2.4,2.1,3.91.63,3.16.81,6.39.54,9.6-.16,2.82-.54,5.81-2.36,7.97-1.23,1.28-2.7,2.32-4.31,3.07-2.19,1.16-5.05,2.28-6.95.68-5.68-4.69.16-12.23-.27-18.19h0Z"/><path class="cls-2_shopping-5" d="M224.94,159.7c-.11-1.47-.33-3.07.41-4.33.83-1.1,1.98-1.91,3.3-2.31,2.43-1.02,5.43-1.99,7.53-.41,1.14,1.02,1.88,2.4,2.1,3.91.63,3.16.81,6.39.54,9.6-.16,2.82-.54,5.81-2.36,7.97-1.23,1.28-2.7,2.32-4.31,3.07-2.19,1.16-5.05,2.28-6.95.68-5.68-4.69.16-12.23-.27-18.19h0Z"/><path class="cls-17_shopping-5 targetColor" d="M201.71,258.75l-12.81,77.25s13.12,2.41,43.45-1.13c16.96-1.97,29.23-1.39,36.78-.49,3.33.4,6.35-1.98,6.75-5.31.09-.74.04-1.5-.15-2.22l-17.73-70.31s-51.95-5.07-56.29,2.22h0Z" style="fill: rgb(40, 75, 99);"/><path class="cls-3_shopping-5" d="M269.1,334.38c-3.12-.38-7.04-.68-11.77-.79-8.35-.15-16.69.28-24.98,1.28-30.33,3.55-43.45,1.13-43.45,1.13l12.81-77.25c2.75-4.62,24.61-4.27,40.25-3.4h.19c8.06.45,14.43,1.02,15.61,1.15h.2v.06l.28,1.1,17.43,69.15c.85,3.24-1.1,6.56-4.34,7.41-.73.19-1.49.24-2.24.16h0Z"/><path class="cls-16_shopping-5" d="M215.54,153.21c2.91,5.45,9.2,9.61,15.19,7.99,4.46-1.22,7.59-5.27,9.5-9.48,1.64-3.89,2.86-7.95,3.64-12.1.87-3.97,1.63-8.08.88-12.08-1.79-7.99-9.13-13.49-17.3-12.95-17.76,1.72-18.32,26.6-11.91,38.62Z"/><path class="cls-15_shopping-5" d="M224.24,102.28c7.21-1.53,15.33-.23,20.82,4.64,5.5,4.87,8.04,12.93,13.94,17.59,1.9,1.5,4.4,2.64,6.72,1.92-1.31,2.77-4.08,4.57-7.15,4.63.99,1.01,2.24,1.72,3.62,2.04-1.54,1.99-3.88,3.2-6.4,3.31.62.48,1.04,1.16,1.19,1.93-2.48,1.28-5.46,1.15-8.17.57-4.64-1.01-8.66-3.89-11.12-7.96-5.82-10.29-16.02-17.82-24.15-4.92-2.53-1.69-5.23-3.63-5.65-6.63-1.19-8.91,8.88-15.54,16.36-17.12h-.01Z"/><path class="cls-4_shopping-5" d="M199.18,194.8c.56-3.34-14.47-9.38-16.43-13.08.12-2.41.44-4.8.96-7.15h0s15.88,6.94,16.75,10.96c.87,4.03-1.28,9.27-1.28,9.27h0Z"/><path class="cls-6_shopping-5" d="M269.1,334.38c-3.12-.38-7.04-.68-11.77-.79l-12.26-43.34s-4-31.54-3.07-34.9h.19l15.61,1.15h.2v.06l.28,1.1,17.43,69.15c.85,3.24-1.09,6.56-4.33,7.41-.75.2-1.52.25-2.29.15h0Z"/></g></svg>